# xmcd
#
# Track frame offsets: 
#        150
#        11417
#        23409
#        34223
#        50164
#        65980
#        81510
#        97974
#        112090
#        132204
#        143981
#
# Disc length: 2170 seconds
#
# Revision: 0
# Processed by: cddbd v1.5.2PL0 Copyright (c) Steve Scherf et al.
# Submitted via: ExactAudioCopy v0.90b4
#
DISCID=9a08780b
DTITLE=The Wild Turkeys - If we make it through December
DYEAR=1991
DGENRE=Blues
TTITLE0=If we make it through December
TTITLE1=Prodigal Son
TTITLE2=Pistol slapper blues
TTITLE3=In the mood
TTITLE4=Write me a few of your lines
TTITLE5=Merry Christmas, baby
TTITLE6=Checkin up on my baby
TTITLE7=She does it right
TTITLE8=Little red rooster
TTITLE9=My babe
TTITLE10=Kind hearted woman blues
EXTD=
EXTT0=
EXTT1=
EXTT2=
EXTT3=
EXTT4=
EXTT5=
EXTT6=
EXTT7=
EXTT8=
EXTT9=
EXTT10=
PLAYORDER=
